<svg xmlns="http://www.w3.org/2000/svg" xmlns:xlink="http://www.w3.org/1999/xlink" width="288"
    height="288" viewBox="610 590 690 470">
    <defs>
        <path id="h" fill="#FFF"
            d="M733.1-482.7Q681.793-72.39 1043.55 36.1 1374.616-38.538 1348-478.65q-310.519-72.754-614.9-4.05" />
        <path id="i" fill="#FFF"
            d="M-281.3-60.4q-.725.003-1.35.4-.63.438-.95 1.1l-66.55 157.95q-.338.892-.05 1.75.284.898 1.05 1.35.818.518 1.7.35l8.35-1.35-12.6 32.55-14.55 1.85q-.643.106-1.2.5-.521.456-.8 1.1l-64.8 166.35q-.232.686-.1 1.35.127.72.6 1.25l86.85 95.75q.457.498 1.1.7.646.214 1.3.05l6.3-1.4.05-.05q645.689-154.203 1314.35-9.9h.05l7 1.4q.715.17 1.4-.1.689-.264 1.1-.85l61.65-84.55q.37-.493.45-1.15.082-.606-.15-1.2l-62.95-163.6 27.05-35.55q.405-.525.45-1.2.104-.673-.2-1.3L941.55-58.9q-.29-.685-.9-1.1-.628-.403-1.4-.4zm1250 210.9-4.15-1.7 2.45-2.45z" />
        <path id="k" fill="url(#c)"
            d="M998.7 103.05h1.55L932.25-47h-1206.3L-330.1 86.05l12-2-24 62-16 2-60 154.05q229.15-39 375.9-55.95 173.2-20 324.4-21.1 158.05-1.1 337.35 17.95 174.05 18.5 414.7 61.1l-60-154.05-7.3-1.25-10.7-1.75-18-44z" />
        <path id="l" fill="#FFF"
            d="M-388.7 314.1q0 1.1 24.05 26.15 12 12.55 24.05 24.85l-24.05-43.95q124.2-34.45 265.65-58-143.25 19.3-289.7 50.95m1380.9 26.15q24.05-25.05 24.05-26.15-146.45-31.65-289.7-50.95 141.45 23.55 265.65 58l-24.05 43.95q12.05-12.3 24.05-24.85" />
        <path id="m" fill="#FFF"
            d="M-188.95-2.05q-27.4 0-54.6.1-8.05 18.65-16.4 37.75 6.3-.1 12.6-.25-31.2 72.95-63.5 152.45-7.35.85-14.75 1.65-11 26.2-22.35 53.85 40.55-5.65 80.65-11.6 9.8-26.1 19.2-51.2-6.65.7-13.45 1.65 18.4-48 36.3-93.4 4.65 39.75 9.45 79.3 35.35-43.9 69.85-84-15.15 42.9-30.5 88.15-6.7.65-13.6 1.55-8.35 24-16.9 49 39.8-5.85 79.55-11.5 7.1-23.65 14.1-46.3-7.1.8-14.3 1.65 22.2-70 43.65-135.25l12.4-.2q5.4-16.55 10.8-33.4h-54.65q-31.15 32.65-62.8 68.5-5.35-34.15-10.75-68.5M6.2 29.65q6.35-.1 12.3-.25 3.95-15.6 8.25-31.35-16.65-.1-33.3-.1-16.7 0-33.4.1-5.05 16.5-10.1 32.85 6.35-.15 12.5-.3-18.9 63.05-38.35 130.45-6.9.75-13.95 1.55-6.65 22.3-13.3 45.45 76.75-10.9 152.4-19.3 6-29.2 11.95-57.6-23.85 1.7-47.7 3.8-2.25 8.65-4.2 17.45-18.35 1.65-36.7 3.55 17-64.8 33.6-126.3M609 15.9q8.45 34.95 17.3 71.1 17.45 11.3 35.2 23.45 31.75 2.45 63.65 4.9 7.55 25.4 15.4 51.55-24.65-2.8-49-5.4-2.65-9.3-5-18.6-23.95-2.35-47.9-4.45 4.35 18 8.75 36.45 19.05 14.05 38.25 29 43.3 6 86.95 12.25 11.65-11.35 23.2-23.05-15.1-47.2-29.75-92.15-18.2-12.55-36.3-24.35-31.2-1.65-62.05-3.25-6.05-21.5-11.8-42.6 21.85.35 43.95.95 2.45 7.65 4.8 15.5 22 .65 44.25 1.55-5.1-15.9-10.45-31.45Q721.55 7.5 705-1.95q-36.6-.1-73.15-.1Q620.4 7.1 609 15.9M403.3-2.05H286.9q-.5 14.35-1 28.5 6.25-.15 12.55-.1-1.4 54.5-2.85 110.3-6.95.05-13.7.05-.75 18.1-1.3 36.85 67.8-.8 136.05 3.05 14.85-10.2 29.95-20-7.3-72.25-14.2-142.15-14.7-8.3-29.1-16.5M342 26.45q24.05 0 48.15.25 3.35 55.15 6.75 111.6-26.7-1-53.15-1.45-.85-55.75-1.75-110.4m214.85-28.5h-78.7q-12.75 8.4-25.05 16.6 8.25 70.45 16.95 143.7 16.95 11.9 34.4 24.75 46.2 4.15 92.55 9.7 13.3-10.3 26.8-20.45-18.05-80.8-35.5-156.65-15.75-8.7-31.45-17.65m-58.8 29.9q24.75.4 49.7.8 11.55 59.05 23.5 120.9-27.7-2.5-55-4.45-9.2-59.6-18.2-117.25m-280.3-29.9h-59.5Q126.2 68.3 93.45 145.2q-6.35.4-12.7.95-3.85 19.8-7.65 40.1 38.95-3.9 78.1-6.8 2.5-19.55 5.3-38.4-7 .25-13.9.8 3.2-8.2 6.45-16.4 22.65-1.1 45.35-2 1.1 7.75 2.45 15.55-6.9.2-13.6.6-2.35 18.8-4.4 37.85 38.9-2.4 77.75-3.45.95-18.65 2.1-36.95-6.55.05-13.05.3Q231.5 67 217.75-2.05m-28.7 91.35q-12.85.35-25.6.9 9.25-22.95 18.45-45.25 3.6 22.1 7.15 44.35m714.1-91.35q-75.6.15-150.7 0 8.8 25.25 17.8 51.45 21.95.8 44.15 1.55-3-8.45-6.1-16.7 5.95.15 12.1.3 26.85 71.05 54.85 148-7.25-.9-13.95-1.7 8.85 25 18.15 51.1 39.8 5.85 79.95 11.55-10.75-27.35-21-53.75-7.05-.7-14.05-1.55-30.65-79.45-60.05-152.6 6 .1 12.15.35 3.65 8.6 7.15 17.45l44.25 1.5q-12.45-29-24.7-56.95" />
        <path id="n" fill="#FFF"
            d="M-73.75 28.35q4.458-13.581 8.9-27.4h-49.25q-30.686 32.184-61.85 67.45v.05q-.795.889-2 1-1.172.096-2.1-.65-.923-.716-1.1-1.9h-.05q-5.126-32.882-10.35-65.95-25.084.005-50.05.1-6.746 15.672-13.75 31.65 3.973-.056 7.9-.15 1.06-.025 1.9.6.833.623 1.1 1.6h-.05q.317.996-.1 1.95-31.175 72.951-63.5 152.4-.29.79-.95 1.3-.66.492-1.5.55-6.447.786-12.95 1.5-9.714 23.115-19.7 47.35 37.056-5.184 73.7-10.65 8.61-22.829 16.85-44.95-4.204.528-8.5 1.1-1.058.168-2-.4-.902-.564-1.25-1.6-.341-1.001.05-2.05 18.413-47.988 36.3-93.4.382-.937 1.25-1.5.912-.512 1.9-.4h.05q1.004.171 1.7.9h.05q.715.746.8 1.75 4.264 36.225 8.6 72.25 33.123-40.94 65.45-78.55.74-.817 1.8-1 1.06-.178 2 .35.933.537 1.3 1.55.393 1.052 0 2.05-15.113 42.888-30.45 88.1-.282.852-1 1.4-.674.558-1.55.65-5.757.552-11.65 1.3-7.281 20.895-14.75 42.55 36.458-5.334 72.8-10.5 6.17-20.424 12.25-40.1-4.857.554-9.75 1.1-1.034.145-1.95-.4-.848-.532-1.2-1.5h-.05q-.33-.985 0-2v.05q22.2-70.014 43.65-135.3.313-.893 1.1-1.45h-.05q.798-.577 1.75-.6 5.099-.083 10.25-.2m89.85-1.9Q19.363 13.792 22.8 1 8.136.95-6.55.95q-15.586 0-31.2.1Q-41.843 14.47-46 27.8q4.25-.1 8.35-.2.997-.03 1.8.5.81.582 1.15 1.5.32.945 0 1.85-18.875 63.038-38.35 130.4v.05q-.23.869-.95 1.45v-.05q-.66.633-1.55.75h-.05q-5.903.634-11.95 1.3-5.72 19.225-11.45 39.05 73.39-10.335 145.75-18.45 5.385-26.059 10.7-51.5-20.785 1.498-41.6 3.3-1.919 7.599-3.65 15.3-.184.948-.9 1.6h-.05q-.71.655-1.7.75-18.312 1.65-36.65 3.55-.994.097-1.85-.45-.85-.494-1.25-1.45-.357-.911-.1-1.9v.05q17-64.813 33.6-126.35.26-.95 1.05-1.6.798-.587 1.8-.6 5.122-.08 9.95-.2m178.15 94h.05q1.147-.033 2 .7.913.737 1.05 1.85 1.113 7.725 2.45 15.45.16.89-.2 1.7-.337.832-1.1 1.3h.05q-.735.521-1.65.55-5.545.163-11 .45-1.93 15.807-3.7 31.75 35.808-2.116 71.55-3.15.802-15.591 1.75-30.95-4.876.063-9.75.25-1.082.038-1.95-.65-.86-.677-1.1-1.75-13.88-69.128-27.4-137h-55.1q-31.657 69.52-64 145.4-.32.805-1.05 1.3v-.05q-.665.534-1.5.6-5.193.329-10.4.75-3.241 16.776-6.45 33.9 35.78-3.53 71.7-6.25 2.159-16.432 4.5-32.4-5.117.245-10.2.65-1.027.075-1.9-.55-.842-.555-1.15-1.55-.325-.987.05-2 3.212-8.2 6.45-16.4.357-.815 1.05-1.35.72-.5 1.6-.55 22.662-1.1 45.35-2m-9.4-76q3.613 22.125 7.15 44.35.156.889-.2 1.7-.347.795-1.1 1.25-.702.52-1.6.55-12.8.35-25.55.9-1.008.038-1.85-.6h-.05q-.8-.581-1.1-1.6-.268-.963.1-1.95 9.275-22.938 18.45-45.25.404-.92 1.25-1.45.889-.503 1.85-.4h.05q.995.124 1.7.8.745.714.9 1.7M415.8 173.5q13.701-9.363 27.6-18.45-7.106-70.483-13.85-138.75-13.674-7.718-27.1-15.35H289.8q-.395 11.28-.8 22.4 4.729-.038 9.45 0 .83.007 1.5.4.727.437 1.1 1.15.42.718.4 1.5-1.4 54.525-2.85 110.3-.031 1.244-.9 2.1v-.05q-.867.887-2.1.9-5.458.04-10.85.05-.583 15.179-1.1 30.8 65.883-.66 132.15 3m-22.65-147q3.35 55.175 6.75 111.6.044.87-.4 1.6-.37.78-1.1 1.2-.745.426-1.6.4-26.675-1-53.1-1.45-1.214-.034-2.1-.9-.827-.854-.85-2.05v-.05Q339.9 81.138 339 26.5q-.016-1.255.85-2.15.906-.899 2.15-.9 24.063 0 48.15.25 1.211.01 2.05.8.88.835.95 2m203 163.05q12.065-9.316 24.3-18.55-17.674-79.08-34.8-153.45Q570.82 9.374 556 .95h-77Q467.479 8.57 456.3 16q8.063 68.957 16.55 140.55 16.112 11.342 32.65 23.5 45.25 4.103 90.65 9.5M547.8 25.65q1.057.015 1.85.7.83.684 1.05 1.7 11.55 59.075 23.5 120.9.18.965-.25 1.85-.374.87-1.2 1.35v-.05q-.8.522-1.75.45h-.05q-27.65-2.5-54.95-4.45-1.01-.08-1.8-.8-.755-.713-.95-1.75-9.175-59.6-18.2-117.25h.05q-.145-.885.2-1.7.383-.805 1.1-1.3h.05q.76-.473 1.65-.45 24.75.4 49.7.8m196.9 19.9q-4.263-13.22-8.75-26.25-16.028-9.27-31.75-18.25-35.67-.099-71.3-.1-10.276 8.204-20.55 16.1 8.13 33.506 16.6 68.1 16.648 10.788 33.55 22.35 31.375 2.43 62.85 4.85.949.079 1.65.65.755.596 1 1.45v.05q7.575 25.4 15.4 51.55V166q.32 1.008-.05 1.95v.05q-.383.95-1.3 1.45h.05q-.871.534-1.9.4-24.625-2.764-48.95-5.35h-.05q-.86-.113-1.55-.7l-.05-.05q-.669-.561-.95-1.45-2.358-8.29-4.5-16.6-20.798-2.037-41.6-3.9 3.75 15.526 7.55 31.35 18.308 13.537 36.75 27.9 42.201 5.834 84.7 11.9 10.47-10.183 20.85-20.7-14.652-45.741-28.9-89.4-17.407-11.99-34.75-23.3-30.765-1.622-61.2-3.2h-.05q-.93-.063-1.7-.7v.05q-.721-.598-1-1.55-6.05-21.488-11.8-42.6-.258-.92.05-1.85.361-.878 1.15-1.45.79-.517 1.75-.5 21.862.35 43.95.95.977.024 1.75.6.762.587 1.05 1.5 2.14 6.657 4.2 13.45 18.828.581 37.8 1.3m178.5 6.2q-11.084-25.822-22-50.8-72.492.144-144.55 0 7.83 22.395 15.75 45.5 18.769.706 37.65 1.35-2.227-6.306-4.55-12.5-.365-.946-.1-1.9v-.05q.31-.933 1.1-1.55h.05q.822-.588 1.8-.55 5.975.15 12.1.3.931.032 1.65.55.773.529 1.1 1.35v.05q26.862 71.062 54.85 148 .387 1.03.05 2-.362 1.03-1.3 1.6-.878.563-1.95.4-4.659-.557-9.1-1.1 7.778 21.996 15.9 44.8 36.405 5.38 73.1 10.6-9.436-23.985-18.5-47.25-6.143-.624-12.3-1.4-.794-.068-1.45-.6-.639-.483-.95-1.25v-.05q-30.637-79.4-60.05-152.55-.368-.935-.1-1.95.278-.95 1.1-1.55.826-.614 1.85-.6 6.037.1 12.2.35.881.037 1.6.5.724.527 1.05 1.3 3.298 7.77 6.45 15.7 18.795.654 37.55 1.3" />
        <path id="o" fill="#FFF"
            d="m517.55 113.75-.6-.9q-12.1-15.2-26.4-29.35-5.5-5.45-11.05-10.55-51.7-46.8-116.05-63.3l-.15-.15q-.45-.15-.9-.15Q326.7 0 287.4 0q-35.55 0-68.1 7.6h-.5Q143.1 25.3 84.1 83.5q-1.1.9-2.05 2-1.65.5-3.4.95l.6 2Q0 170.6 0 285.25q0 28.85 5.1 55.9 0 .3.15.7 0 .2.15.5 15.8 82 78.7 144.65 31.95 31.55 68.75 51.2l.15.2q60.55 32.1 134.4 32.1 49.7 0 93.3-14.4.45-.2 1.05-.35Q442 535.15 490.55 487q55.6-55.05 74.5-124.9l1.25-.35q-.3-1.05-.5-2.15 9.2-35.4 9.2-74.35 0-97.6-57.45-171.5" />
        <path id="q" fill="#FFF"
            d="m20.1-53.9.2.2q-.538-.535-1.1-1.05-.076-.037-.15-.1-2.427-2.146-5.05-3.8-.116-.025-.25-.1Q7.916-62.221 1-62.95q-3.208-1.034-8.25.9.001.04-.05.05-2.974 1.158-5.65 2.85-5.47-3.25-12-3.8-4.985-.675-9.45 1.35-.04.064-.15.1-5.404 2.58-9.9 6.75-1.287.105-2.6.2-5.732.218-11.6 1.1-7.414.83-14.45 3.6-.123.071-.3.1-2.062.93-3.9 2.2-.123.125-.3.2-4.091 3.132-5.7 6.45l-.05.05q-.64 1.305-1.15 2.6-4.724.796-9.3 3.2-2.417 1.29-4.7 2.75 1.272-2.926 1.35-6.5.13-5.575-3.05-10.4l.1.15q-2.374-3.801-5.9-6.8l-.05-.05q-5.644-4.813-12.95-6.45-.233-.053-.45-.1-2.322-.422-3.95-.6-.215-.016-.4-.05-4.652-.337-9.1 1.75-.06.062-.2.1-4.241 2.129-7.75 5.3l.1-.05q-2.488 2.255-4.5 4.55v.05q-6.574 7.688-12.45 15.85-1.707-1.1-3.65-2.1-6.548-3.296-13.65-2.3l-.4.05q-7.427 1.32-13.75 5-3.181-1.915-7.05-2.9-9.74-2.508-17.6 2.1-3.487-1.517-7.15-2.3-4.892-1.022-9.7-.2-.428-1.976-1.15-3.95v.05q-.98-2.832-2.3-5.5l.05.15q-.975-2.031-2.25-3.95 0-.012-.05-.05-1.004-1.554-2.15-3.05-.068-.074-.1-.15-4.01-5.081-9.45-8.65l.05.05q-6.483-4.277-14.3-5.55h.1q-1.725-.256-3.45-.25-12.333-.005-24.5 2.8h-.1q-2.913.737-5.8 1.45h-.05q-18.188 4.59-34.35 13.85-7.486 4.229-13.25 11.05l.05-.05q-3.89 4.58-5.25 10.4v.05q-.673 2.975-.75 5.95v.05q-.09 5.067 1.5 9.05 1.51 3.928 3.65 7.35l.05.1q3.14 4.913 7.4 8.3l-.1-.05q.688.543 1.35 1.05-.02.072-.1.15.015.026 0 .05-5.583 8.95-9.2 18.65-1.72 4.688-1.65 9.85-.002.113 0 .25.093 2.125.6 4.2.049.125.05.2 2.815 11.537 12.55 17.6.054.038.05.05 3 5.387 7.8 9.1l.05.1q5.068 3.855 11 5.65 3.942 1.204 8.15 1.15h.1q5.815-.074 11.35-2.1h-.05q14.965-5.4 26.6-15.75.639.471 1.3.9h.05q7.237 4.735 15.6 5 4.085.287 7.6-1.15.105-.027.25-.1 3.624-1.487 6.95-3.55 3.739 2.405 7.85 3.55 9.457 2.838 17.55-.7.242.114.45.2 2.116.972 4.45 1.6 5.677 1.846 11.85 1.1.198.002.4-.05 5.908-.946 11.25-3.4h-.05q2.19-.964 4.2-2.2 2.832 1.94 6.1 3.3l.35.1q6.832 2.548 13.8.4.155-.039.3-.1 2.73-.9 4.9-2.4.782.448 1.55.85.383.157.7.3 9.557 3.914 19.75 1.25h.1q6.388-1.71 11.95-4.8l.05-.05q.707-.357 1.35-.75 1.257.87 2.55 1.65.061.027.1.05 2.542 1.53 5.15 2.6.12.035.2.05 5.663 2.204 11.95 2.15 10.532-.128 19.6-4.8 3.731 2.492 8.1 3.7 10.267 2.816 18.9-1.5 1.499.703 3.05 1.25h.1q4.99 1.724 9.9 1.25.41-.021.85-.1 2.786-.483 5.2-1.6 5.73 2.288 12 1.65.401-.038.8-.1.478-.088 1-.2l-.35.05q6.572-.857 12.45-4.55h.05q2.405-1.524 4.65-3.25 1.383 1.273 2.95 2.4l.1.1q2.857 1.983 5.95 3.3.12.054.2.1 5.926 2.425 12.35 2.5h.1q5.748-.017 10.65-2.85l.05-.05q1.504-.872 2.9-1.85 6.706 4.072 14.85 4.75 1.127.114 2.25-.05 1.344-.193 2.6-.45.26-.05.5-.1 4.288-1.088 7.95-3.15 4.969 2.674 10.8 3.5.738.098 1.4.1 2.715-.008 5.25-.65.125 0 .2-.05.14.004.25-.05 4.224-.92 7.85-2.9 7.653 4.232 16.7 3.6.571-.02 1.15-.15 5.434-.982 9.7-4.35 6.746-5.244 12.45-11.9l-.1.1q2.723-3.085 5.15-6.25 1.115-1.418 2.2-2.85.421 1.73 1.05 3.35l.05.05q3.686 8.944 11.3 15l.1.1q5.123 3.981 11.15 5.75.17.023.25.05 6.25 1.664 12.75 1.05 5.455-.517 10.65-2.4l.05-.05q2.883-1.032 5.6-2.4l1 .65q.138.05.2.1 5.73 3.39 12.45 4.15 4.586.685 9.05-.7l.1-.05q3.112-.936 5.95-2.85.77.442 1.55.8.093.058.15.1 6.049 2.841 12.45 2.9 6.513.074 12-3.25l.1-.05q.285-.148.55-.35.454.257.9.45l.1.05q6.306 3.032 13.2 3.1 5.436.097 10.4-2.55 4.438 2.099 9.6 2.4.175.017.35 0 .2.043.4.05 4.754.322 9-1.75 3.14 1.216 6.6 1.65.203.038.4.05 8.031.724 15.1-3.15.105-.04.25-.1 2.425-1.425 4.9-2.9h-.05q3.882-2.25 7.05-5.35l.05-.1q1.776-1.725 3.45-3.5l.1-.1q1.776-1.837 3.45-3.7.096-.09.2-.2 7.563-8.66 12.9-18.85 5.722-10.92 7.9-22.95l-.05.1q.74-3.762.6-7.55v-.1q-.37-7.121-4.6-12.75-1.772-2.37-3.95-4.45.992-1.169 1.75-2.5.142-.185.25-.4 1.14-1.932 1.45-4.1.037-.1.05-.2.03-.17.05-.35.318-2.139.25-4.25.003-.062 0-.15-.197-5.371-2.8-9.7-.092-.11-.2-.3-2.882-4.427-6.5-6.65-.169-.06-.3-.15-1.368-.816-2.65-1.7l-.15-.05q-6.155-3.99-13.25-4.15-3.81-.367-7.65 1.15-2.71 1.086-5.05 2.75l.3-.2q-6.19 4.06-11 9.85-5.35 6.433-10.25 13.2-2.446-1.032-5.1-1.7-.344-.047-.65-.1-2.175-.38-4.35-.6-.938-.054-1.9.05-3.942.402-7.6 2 .386-2.318-.05-4.9-.253-1.886-.9-3.45-.681-1.951-1.55-3.75-1.472-3.062-2.85-4.35v-.05q-5.26-5.673-12.6-8l-.25-.05q-1.915-.655-3.9-1.2-7.102-2.085-13.65 1.35-.049.038-.15.05-2.105 1.177-4.1 2.6l-.05.05q-6.51 4.822-11.2 11.1-.023.039-.05.05-3.214 4.223-6.3 8.3l.05-.05q-2.318 3.122-4.6 6.3-1.688-1.079-3.55-2.1l.1.05q-6.773-3.76-14.45-3.75h-.1q-7.928.094-14.6 3.8-.074.062-.2.1-2.561 1.522-4.9 3.05l-.15.1q-5.34 3.722-9.75 8.35l-.05.05q-4.456 4.76-8.15 10l-.05.05q-.344.53-.75 1.05v-.05q-.513-.62-1.1-1.25.36-.435.7-.9l.15-.2q1.871-2.4 3.8-4.7l.1-.05q1.99-2.362 4.2-4.4.049-.026.05-.05 3.576-3.196 5.95-7.3l-.05.05q2.174-3.538 2.3-8.1v-.05q.184-8.92-6.25-15-.024-.026-.05-.05-1.25-1.168-2.55-2.2-6.971-5.7-15.85-6.9-.212.01-.45 0-6.648-.596-12.45 2.85l-.15.1q-.674.432-1.35.9-4.333-2.44-9.4-3.45-.507-.06-1-.1-2.788-.253-5.5.15-7.547.898-13.2 6.1l-.05.05q-3.33 3.123-6.35 6.5l-.05.1q-5.726 6.596-10.85 13.55-2.157-.966-4.5-1.65-.122-.033-.25-.1-6.097-1.61-12.15.5-.075.063-.2.1-2.22.786-4.3 1.9-.622-.32-1.3-.65l-.15-.05q-2.92-1.293-6.1-1.8-7.906-1.533-15.55 1.4h.1q-2.913 1.11-5.55 2.55h-.05q-1.651.957-3.25 2 1.123-2.393 1.4-5.15v-.05q.993-10.04-6.1-16.6" />
        <path id="r" fill="#161B2E"
            d="M156.4-7.25q-1.766 2.41-3.35 4.95v-.05Q152.062-.7 151.1.9q-.01.053-.05.05-5.514 9.8-7 20.7-1.054 8.327 3.75 14.9h.05q3.208 4.397 7.7 7.35h.05q5.292 3.38 11.85 3.45h.05q5.86 0 11.1-1.95 5.4-2.01 9.95-5.2 3.178 3.356 7.45 5.3h.05q4.34 1.95 9.05 1.9.214.001.4-.05 4.025-.645 7-3.15 1.894-1.494 3.6-3.1.423.4.85.75 1.267 1.131 2.75 2.05.037.051.05.05 5.016 3.34 10.95 3.4 3.589.056 6.7-1.8.051.014.05 0 3.07-1.704 5.75-3.95 1.45 1.31 3.1 2.4.04.048.05.05 4.154 2.617 9.05 3.15.068.038.1.05 2.016.16 4.2-.1.195.016.4-.05 2.193-.566 4.15-1.75h-.1q1.988-1.08 3.65-2.6 1.004.915 2.1 1.7h.05q3.832 2.64 8.5 2.85 3.96.356 6.65-2.4.647-.6 1.15-1.3.773.568 1.45 1h-.05q4.594 2.985 10.1 2.75.135-.005.25-.05 2.899-.415 5.25-1.3.146-.056.25-.15.517-.22 1.05-.45.196-.05.35-.15 1.251-.738 2.45-1.55.089-.01.15-.05 3.786-2.162 6.95-5.05h-.05q3.595-3.255 6.7-7 9.006-10.536 14.45-23.3 3.229-7.575 4.35-15.8.986-6.801-3.55-11.8v-.05q-2.829-3.184-6.55-5.55-1.64-.989-3.45-1.8 1.582-1.875 3.3-3.7l-.05.05q1.875-1.825 3.65-3.75.05 0 .05-.05 1.257-1.225 1.85-2.75.051-.077.05-.15.222-.582.25-1.25.065-.85 0-1.7v-.05q-.506-5.423-5.2-8.5l.1.05q-1.462-1.024-3.05-2-.001.014-.05 0-4.51-2.838-9.8-2.6-.1.01-.2 0-3.573.46-6.4 2.8l-.05.05q-3.838 3.236-7.1 7.15-3.363 4.048-6.65 8.45-4.415 5.921-8.55 11.95-.875-.792-1.85-1.55l.05.05q-4.993-4.09-11.55-4.5-.152-.01-.3 0-1.224.07-2.4.5-3.415.864-6.05 3.1-.023.052-.05.05-1.763 1.496-3.4 3.25-1.28-1.43-2.85-2.6l-.05-.05q-5.138-3.735-11.4-4.25 1.878-1.973 3.85-3.7l.05-.05q1.487-1.286 2.65-3.1h.05q1.322-1.993 1.1-4.5-.073-.75-.3-1.4-.424-1.634-1.3-3.05-.026-.012-.05-.05-.591-.983-1.4-1.8l.05.1q-5.797-6.222-14.3-6.85-.065-.003-.15 0-.804-.004-1.55.05-.302.025-.6.1-3.459 1.181-6.25 3.55-4.215 3.774-7.65 8.2h-.05q-6.413 8.125-12.25 16.55-2.375 3.434-4.7 7-1.438-2.427-3.8-4.3L202-22q-3.944-3.054-8.6-5.1-.024.011-.05 0-3.455-1.56-7.2-1.5-5.278.12-9.9 2.65h.05q-4.58 2.529-8.5 5.9-4.196 3.751-7.9 8.15.002.04-.05.05-1.738 2.3-3.45 4.6m27.9 21.35-.8.95q-2.854 3.335-6.7 5.7-.996.67-2.1 1.05.288-1.804 1-3.55 1.301-3.153 2.9-6.15 2.168 1.58 5.15 1.9l.05.05zM35.5-26.65q-5.255 2.528-9.85 6.35-.048.077-.1.1-1.975 1.837-3.9 3.7-.989.969-1.95 1.95-.037-.156-.1-.35-.014.003-.05-.05-1.538-3.926-4.75-6.8h-.05q-3.382-2.878-7.3-4.7-.165-.079-.35-.15l5.5-6.1-.1.1q.714-.673 1.45-1.35 1.913-1.633 2.2-4.25.038-.055.05-.1.054-.75.05-1.5-.029-4.163-2.95-6.8-.023-.002-.05-.05-1.43-1.298-3.4-2.75Q4.996-52.932-1-53.1h.15q-3.004-.271-5.5 1.45-.013.049-.05.05-3.392 2.286-6.2 5.2-.743-.905-1.55-1.4-1.097-.727-2.15-1.55-5.14-3.867-11.55-3.75h-.05q-2.488.06-4.65 1.5l-.05.05q-4.099 2.827-7.35 6.5-6.724.447-13.55 1.05-3.766.37-7.35 1.05-4.483.549-8.65 2.3l.05-.05q-2.383 1.003-3.95 2.9-.675.775-1.15 1.65l.05-.05q-2.127 3.852-1.85 7.9-1.655-.33-3.4-.4-.148-.009-.3 0-7.824.61-14.05 5.3-5.004 3.722-9.3 8.3-1.155-4.373-4.65-7.6-3.484-3.265-7.8-4.85.928-1.048 1.9-2.1h-.05q2.104-2.225 4.4-4.4l.05-.05q2.244-1.994 2.3-4.9.06-1.172-.25-2.3v-.05q-.325-1.305-1.05-2.45-1.52-2.443-3.95-4.45v-.05q-5.116-4.396-12.1-4.8h.1q-2.894-.296-5.5 1.4h-.05q-4.268 2.864-7.65 6.75-6.28 7.258-11.85 15.2-3.066 4.408-6.05 8.85-4.267-4.964-10.3-7.75-2.454-1.119-5.25-1.6-.24-.01-.5 0-2.056.058-4 .6-7.65 1.635-13.5 6.95-.957-.89-2.1-1.7-.068-.039-.15-.1-1.338-.825-2.65-1.65-3.015-1.818-6.2-2.35-2.948-.65-5.7.25l-.05.05q-3.2 1.152-5.9 3.5.016.051 0 .05l-.9.85q-3.963-2.805-8.55-4.05-6.836-1.97-13.35 1.2-4.065 1.99-7.7 4.7.134-.278.25-.55v-.05q1.86-3.582 2.1-7.9.106-1.835-.15-3.75-.74-6.4-4.4-11.75-3.544-5.341-8.9-9-5.443-3.702-12-4.2-.082-.002-.15 0-5.547-.105-11.25.7-5.589.784-11.05 1.95-5.726 1.272-11.35 2.95h-.05q-5.727 1.733-11.3 3.9-5.138 2.12-10.3 4.7-4.71 2.412-8.95 5.45h.05q-4.759 3.414-7.9 8.5-2.09 3.48-2.15 7.65v.1q.057 2.78 1 5.3 1.442 4.038 4.05 7.3.88 1.115 1.9 2.15l-.05-.1q.994 1.13 2.2 2.05.062.076.1.1 1.308 1.122 2.7 1.8 1.205.788 2.8 1.05.15.043.25.05 1.604.11 3.1-.1.293 0 .55-.1.8-.24 1.55-.6-2.424 3.694-4.8 7.45-2.852 4.688-5.45 9.35v-.05q-2.193 3.933-4.05 8.15l-.05.05q-.724 1.865-1.55 4.05.013.063 0 .1-.865 2.188-1.1 4.75-.241 2.59.3 4.7l.05.05q.546 2.015 1.5 3.6v-.05q3.283 5.488 8.85 8.1 1.05 2.598 2.75 4.8v-.05q3.336 4.292 8.25 6.65 6.512 3.075 13.6 1.35 5.888-1.346 11.25-4.25h.05q2.729-1.498 5.2-3.1 7.857-5.1 14.4-11.85v-.05q1.005-1.027 1.95-2.1 2.73 4.105 6.9 6.7 5.617 3.635 12.4 3.3.26-.014.5-.1 1.244-.288 2.4-.85 5.431-2.523 10-6.5 2.132 2.45 4.9 4.2 5.124 3.247 11.1 3.2 1.266-.008 2.45-.35 3.105-.402 5.65-2.35.032-.025.05-.05.496-.398.95-.75 1.993 1.618 4.4 2.8h.05q6.013 2.8 12.65 1.55h.05q5.938-1.198 10.95-4.6 2.73-1.821 4.9-4.15.408.518.8 1 .052.023.05.05 3.527 4.155 8.6 6.1 5.067 1.946 9.7-.7v.05q2.316-1.282 3.05-3.4.561-1.38 1.05-2.8 2.276 2.898 5.25 4.85.087.073.15.1 1.01.602 2.05 1.1.151.092.25.15 7.6 2.866 15.4.2h-.05q8.256-2.662 14.75-8.3 2.198 2.713 5 4.8.05.021.05.05 2.075 1.444 3.85 2.25 7.898 3.726 16.6 1.85l.05-.05q7.77-1.773 14.15-6.4 2.02 2.172 4.5 3.75.051.01.05 0 5.133 3.356 11.2 3.25h.05q1.422-.006 2.75-.5l-.2.05q4.384-1.24 7.75-4.15 1.032.85 2.1 1.65 2.626 1.977 5.85 2.7 2.926.622 5.7-.15h.05q3.115-.91 4.8-3.2.75.534 1.4.95h-.05q3.983 2.592 8.8 2.65h.05q1.482-.006 2.9-.4l-.25.05q2.029-.304 3.95-1 2.397-.754 4.45-2.05.023.01.05 0 3.688-2.362 6.85-5.25h-.05q2.62-2.347 4.95-4.95 1.563 5.076 5.75 8.5 5.175 4.294 11.7 5.05 4.993.629 9.05-1.95h.05q3.834-2.438 7.15-5.45 2.152 2.556 4.9 4.25h.05q5.571 3.461 12.1 3.35.26-.009.5-.1 1.278-.273 2.45-.85 4.336-1.81 7.7-5 2.11 1.887 4.5 3.15.05.037.05.05 4.987 2.81 10.6 2.75.296-.006.55-.1 1.278-.273 2.45-.85 4.334-1.81 7.7-5 2.757 2.474 6.15 4.1 3.807 1.795 7.9 1.75 2.121.213 4.15-.6.035.011.05 0 2.354-.996 4.25-2.6v.05q1.451-1.123 2.85-2.4 5.163-4.576 9.45-9.95 9.928-12.636 18.75-26h.05q1.611-2.43 1.4-5.4-.262-3.323-2.45-5.85h-.05q-3.084-3.526-7.65-4.75-.232-.032-.45-.1 3.618-5.073 7.35-10v.05q2.075-2.6 4.2-5.35 2.255-2.859 5.15-5.6.037-.004.05-.05.631-.584 1.3-1.15h-.05q2.556-1.904 3.45-4.8 1.308-3.948-1.1-7.45-1.561-2.198-3.7-3.9h-.05q-4.168-3.227-9.45-4.35-2.842-.583-5.45.2-.034.024-.1.05-2.425.882-4.35 2.35-2.163 1.676-4.15 3.7-.079-.08-.2-.15-1.35-1.113-2.75-2.2h.05q-5.401-4.219-12.15-4.15-.21.003-.45.05-.996.2-1.95.6-2.96 1.066-5.35 3.2-6.065 5.56-11.05 12.2-5.236 6.99-10.15 14.3Q76.846-26.325 72-28q-5.384-1.894-10.1.8l-.05.05q-2.399 1.442-4.45 3.3-3.956-2.759-8.55-4-6.836-1.97-13.35 1.2m-350.95 15.8q.259-.318.5-.65-.23.352-.5.7-.062.125-.15.25.087-.133.15-.3m140.8 21.8q.107.031.2 0-.048.161-.15.3-.01-.14-.05-.3m-87.85-8.7q-.79-1.08-1.7-2.1.144-.08.25-.2L-264 0q2.647-1.833 5.1-3.8-1.902 2.943-3.6 6.05" />
        <path id="s" fill="#FFF"
            d="M84.15 48.5Q87 44.05 87 40.1q0-3.05-1.6-6.6-1.55-3.45-4.25-6.35-2.65-2.9-6.25-4.9-3.5-1.95-7.55-1.95Q62 20.3 55 21.45q-6.9 1.15-14.15 3.15-7.3 1.9-14.3 4.7-7.05 2.75-12.45 5.9-5.45 3.15-8.75 6.65Q2 45.3 2 48.7q0 1.85.95 4t2.4 3.95q1.35 1.85 2.9 3.1 1.55 1.2 2.65 1.2.55 0 .55-.5t.25-1.5q1-2.65 4.3-5.95 3.3-3.25 8.15-6.45 4.9-3.1 11.1-5.9 6.15-2.8 12.75-4.6-4.2 4.6-8.95 10.6T29.5 59.2q-4.7 6.6-9.15 13.35-4.45 6.65-7.8 12.55-3.4 5.85-5.45 10.45-2.05 4.55-2.05 7 0 1.8.95 3.45 1 1.7 2.35 2.95 1.45 1.3 3.05 2.15 1.7.8 3 .8.3 2.1 1.4 4.2 1.15 2.05 2.9 3.75 1.7 1.7 3.95 2.85 2.3 1.05 4.75 1.05 3.85 0 8.55-1.9t9.4-4.95q4.65-3 9-6.85t7.7-7.8q3.4-3.85 5.35-7.6 2.05-3.7 2.05-6.4 0-.8-.65-3.25-.7-2.45-2.15-4.95-1.5-2.5-3.65-4.45-2.2-2-5.3-2h-1.75q-.95 0-1.9.15 6.1-3.65 12.05-7.9 5.9-4.2 10.55-8.55 4.65-4.4 7.5-8.8M59.2 40.8q3.9-4.55 7.1-7.35 4.6.15 7.3 1.35 2.7 1.1 2.7 4.5 0 1.85-1.85 4.25-1.8 2.35-4.9 5.05-3.05 2.7-7.05 5.65-4.05 3.05-8.4 5.9-4.25 2.85-8.65 5.6-4.45 2.75-8.3 5.05 2.9-4.4 6.6-9.7 3.75-5.3 7.65-10.55t7.8-9.75M23.85 92.75q1.1.7 2.15.7l2.85-1.75q2.8-1.75 7.05-3.9 4.3-2.15 9.45-3.9 5.2-1.75 10.1-1.75 2.3 0 2.05.95-.2 1.85-2.3 5.05-2.1 3.3-5.4 6.85-3.4 3.6-7.6 7.15-4.2 3.5-8.7 5.85-4.4 2.3-8.75 2.85-4.35.6-7.85-1.6.95-3.95 2.9-8.25 2-4.2 4.05-8.25M165.2 59q.25 1.1-.3 2.65-.6 1.5-1.75 3.2-1.1 1.7-2.8 3.6-1.65 1.9-3.45 3.6-.65.6-.4 1.15t.9 1.15q.6.5 1.35.8.85.3 1.3.3 3.65 0 5.2-.4 1.5-.4 2.85-2.15 3.5-4.75 4.85-8.5 1.25-3.85 1.25-5.95 0-1.15-1.35-2.7-1.35-1.6-3.35-3.1-2-1.45-4.2-2.5-2.2-1-3.8-1-3.3 0-7.05 2.55-3.8 2.55-7.2 6.3-3.45 3.8-5.75 8-2.35 4.2-2.7 7.6-3.05 4.3-6.45 9.05-3.35 4.75-6.55 8.85-3.25 4.1-6.15 7-2.85 2.95-4.8 3.4-.95-.8-.2-3.8.85-3.05 2.75-7.1 1.95-4.1 4.75-8.95 2.8-4.8 5.9-9.35 3.05-4.55 6.2-8.45 3.15-3.8 5.85-6 1-.85 1.25-1.45.25-.5-.75-1.6-1.7-1.6-4.15-2.95-2.4-1.45-4.75-1.45-1.7 0-4.3 2.2-2.55 2.2-5.45 5.85-.6-1.2-2.2-2.65-1.55-1.35-3.55-2.6-1.95-1.2-4.05-2.05-2.05-.75-3.75-.75-3.05 0-6.55 1.8-3.45 1.7-7.15 4.85-3.6 3.1-7.15 7.25t-6.6 8.9q-4.55 7.1-7.25 14.35-2.75 7.25-2.75 14.1 0 1.35 1 3 1.1 1.75 2.85 3.25 1.75 1.4 4.05 2.5 2.35 1 4.9 1 1.25 0 3.15-1.05 1.95-1.15 4.35-3.1t5.05-4.55q2.7-2.6 5.5-5.85-.35 1.4-.5 2.6-.1 1.25-.1 2.2 0 1.35 1 2.95 1.1 1.7 2.8 3.25 1.8 1.45 4.15 2.55 2.3 1 4.85 1 2.35 0 6.2-3.55 1.862-1.72 3.85-3.9.104.294.2.55.9 2.35 2.6 4.15 1.65 1.75 3.9 2.85t4.85 1.1q3.25 0 6.65-1.25 3.4-1.3 6.2-3.5 2.8-2.25 4.6-5.2 1.75-3 1.75-6.4 0-2.65-.7-5.35-.65-2.65-1.4-5.15-.8-2.55-1.5-4.9-.65-2.4-.65-4.4 0-2.6 1.3-5.5 1.25-2.85 3.4-5.3T160 61.7q2.65-1.95 5.2-2.7m-51.8 1.7q.5 2.3-.9 6.05-1.3 3.85-3.8 8.25-2.5 4.35-5.85 8.9-3.35 4.6-6.7 8.35-3.35 3.8-6.45 6.5-3.05 2.7-5.1 3.15-.25-2.45 1.1-6.2 1.35-3.8 3.75-8.2 2.45-4.35 5.6-8.8 3.1-4.5 6.4-8.25 3.25-3.8 6.45-6.45 3.05-2.6 5.5-3.3m24.6 26q.902-1.268 1.75-2.55.267 1.17.5 2.25.5 2.6 1.05 4.8.5 2.2.5 4 0 1.85-.8 3.15-.85 1.25-2 2.05-1.25.9-2.6 1.25-1.35.4-2.55.4-2.55 0-4.3-.65-1.1-.5-1.95-1 .578-.66 1.15-1.35Q133.3 93.5 138 86.7m203.95-52.9q1.15-.95 1.15-1.6 0-.7-.7-1.4-1.35-1.4-3.8-2.85-2.45-1.55-5.25-1.55-1.3 0-3.55 1.95-2.3 1.95-5.25 5.4l-1 1.15q-3.599-.405-8.15-.6.15-.1.2-.25.05-.1.3-.25.5-.45.85-.85t.35-.75q0-.6-.85-1.4-1.3-1.4-3.75-2.85-2.45-1.55-5.25-1.55-1.35 0-3.75 2.1-2.35 2.15-5.55 5.8-5.7.25-11.2.65-5.4.4-9.7 1.1-4.35.55-7.2 1.4-2.85.9-3.35 1.85-1 1.85-.95 3.2.05 1.45.45 2.8.3.95.65 1.1.35.1 1.3-.25 2.7-.95 8.85-1.6 6.15-.6 13.85-.7-4.9 6.6-9.9 14.35t-9.4 15.4q-3.15 4.4-6.6 9.45-3.5 5-7.4 9.1-3.9 4.15-8.2 6.9-4.25 2.75-8.9 2.75-2.9 0-3.9-1.8-.95-1.7-.95-4.15t.7-5q.75-2.6 1.35-4.2 1.45 1 3 1.6t3.35.6q1.95 0 4.55-1.55 2.65-1.45 5.4-3.9 2.7-2.45 5.4-5.55 2.7-3.15 4.75-6.4 2.1-3.2 3.4-6.15 1.25-3 1.25-5.2 0-1-1.4-2.55-1.5-1.65-3.65-3.1t-4.6-2.6q-2.45-1.05-4.35-1.05-2.95 0-6.4 1.85-3.45 1.8-7.1 4.95-3.6 3.1-7 7.25-3.45 4.1-6.35 8.75-2.2 3.3-5.55 8.05t-7.25 9.3-8.05 7.7q-4.1 3.15-7.9 3.15-1.1 0-2.4-1.1-1.25-1.1-2.55-2.9-1.25-1.85-2.5-4.35-1.2-2.5-2-5.3 1.6 1.3 3.3 2.2 1.6.85 2.95.85 2.7 0 5.8-1.5 3.1-1.45 6.3-3.85Q211 83.4 214 80.3q3-3.15 5.25-6.55t3.6-6.8q1.45-3.35 1.45-6.25 0-1.75-1.05-3.45-1.15-1.8-2.95-3.25-1.7-1.35-3.75-2.3-2-.9-3.85-.9-1.2 0-3.15 1.15-2 1.15-4.35 3.2-2.35 1.95-5.2 4.75-2.8 2.85-5.7 6.05 3.45-5.5 6.95-10.6 3.5-5.2 6.65-9.4 3.1-4.2 5.8-7.3t4.55-4.7q1.3-1.1 1.3-1.6 0-.6-.85-1.45-1.35-1.35-3.8-2.9-2.45-1.6-5.25-1.6-1.3 0-3.55 1.95-2.3 1.95-5.2 5.4-2.95 3.45-6.45 8.05-3.45 4.6-6.95 9.85-3.6 5.25-7.15 10.85-3.65 5.65-6.8 11.1-2.8 4.8-5.2 9.2-2.35 4.45-4.1 8.25-1.65 3.75-2.65 6.7t-1 4.65q0 1.85 1 3.55t2.4 3q1.5 1.25 3.2 2.1 1.6.75 2.95.75 1.3 0 1.8-1.2.55-1.25.75-2.55 1.2-4.75 4.25-11.15.65-.6 1.15-1.25.45-.7.95-1.4 1.1 3.25 2.5 6.45t3.2 5.7q1.85 2.5 4.05 3.9 2.2 1.5 4.75 1.5 7 0 12.95-3.65 5.95-3.7 11.15-9.3 1.013-1.102 2-2.25v.55q0 2.1 1.2 4.6 1.25 2.5 3.4 4.75 2.1 2.25 5.1 3.75 3 1.55 6.5 1.55 7.2 0 13.4-3.65 5.618-3.326 10.6-8.2-.2 1.157-.2 2.1 0 1.35 1.1 3 1.1 1.75 2.8 3.25 1.7 1.4 4.1 2.5 2.4 1 4.95 1 2.3 0 6.15-3.55 2.605-2.47 5.55-5.8.052 1.743 1 3.45 1 1.75 2.4 3.05 1.5 1.25 3.2 2.1 1.6.75 2.95.75 1.3 0 1.85-1.3.5-1.25.7-2.65.6-1.65 1.35-3.75.75-2.05 1.7-4.5v.1q0 1.4.9 3.45.95 2.05 2.55 3.95 1.7 1.9 3.95 3.25 2.25 1.45 4.8 1.45 3.15 0 7.05-2.4 3.8-2.35 7.85-6.35 4-4.05 7.8-9.25 3.75-5.15 6.7-10.75 2.95-5.7 4.7-11.3 1.8-5.6 1.8-10.45 0-1.75-1.65-3.55-1.55-1.85-3.8-3.45-2.25-1.55-4.75-2.55-2.5-.95-4.35-.95-1.45 0-3.8 1.6-2.4 1.55-5.2 4.25 3.633-5.317 6.95-9.85.817.237 1.5.45.9.2 1.5-.75.5-.8.55-2.2.038-.976-.15-2.1 4.69-5.983 7.6-8.4M325.2 66.15q4.75-4.85 8.8-7.55.1.5.1 1.45 0 3.9-1.45 8.3-1.45 4.35-3.75 8.65-2.35 4.3-5.25 8.15-2.95 3.95-6.05 7.05-3 3.1-5.85 5.1-2.9 2.05-4.95 2.4v-.85q0-4.5 2.7-10.35 2.75-5.9 6.85-11.65 4.05-5.8 8.85-10.7m-18.6-22.2q4.986.17 9.5.55-2.42 3.408-4.95 7.15Q307.5 56.9 304 62.5q-3.6 5.65-6.75 11.1-3.1 4.3-6.45 9-3.3 4.8-6.6 8.9-3.2 4.1-6.05 7-2.9 2.95-4.85 3.4-.45-.7-.45-1.7 0-1.9 1.6-5.7 1.55-3.65 4.1-8.45 2.55-4.75 6-10.3 3.4-5.6 7.1-11.2 3.75-5.6 7.55-10.9 3.9-5.3 7.4-9.7m-62 29.75q2-2.95 4.3-5.5 2.35-2.55 5-4.6 2.7-2.1 5.5-2.95.15.4.15 1.1 0 1.45-1.65 4.5-1.65 2.95-4.1 6t-5.15 5.35Q246 79.95 244 79.95q-.7 0-1.45-.2-.8-.2-1.45-.75 1.5-2.45 3.5-5.3m-48.35 7.1q-4.3 2-7.35 1.85 6.25-7.2 12.75-13.6 6.55-6.4 12.05-9.85.1.25.1.95 0 4.15-2.7 8.3-2.75 4.1-6.7 7.25-3.85 3.15-8.15 5.1m257.6-50q-1.3-1.4-3.75-2.85-2.45-1.55-5.25-1.55-1.25 0-3.55 1.95-2.35 1.95-5.25 5.35t-6.3 8.05q-3.45 4.65-7.05 9.9-3.65 5.25-7.15 10.85-3.5 5.65-6.6 11.1-.087.158-.2.3-2.925 4.174-6.2 8.75-3.35 4.75-6.55 8.85-3.25 4.1-6.15 7-2.85 2.95-4.8 3.4-.95-.8-.2-3.8.85-3.05 2.75-7.1 1.95-4.1 4.75-8.95 2.8-4.8 5.9-9.35 3.05-4.55 6.2-8.45 3.15-3.8 5.85-6 1-.85 1.25-1.45.25-.5-.75-1.6-1.7-1.6-4.15-2.95-2.4-1.45-4.75-1.45-1.7 0-4.3 2.2-2.55 2.2-5.45 5.85-.6-1.2-2.2-2.65-1.55-1.35-3.55-2.6-1.95-1.2-4.05-2.05-2.05-.75-3.75-.75-3.05 0-6.55 1.8-3.45 1.7-7.15 4.85-3.6 3.1-7.15 7.25t-6.6 8.9q-4.55 7.1-7.25 14.35-2.75 7.25-2.75 14.1 0 1.35 1 3 1.1 1.75 2.85 3.25 1.75 1.4 4.05 2.5 2.35 1 4.9 1 1.25 0 3.15-1.05 1.95-1.15 4.35-3.1t5.05-4.55q2.7-2.6 5.5-5.85-.35 1.4-.5 2.6-.1 1.25-.1 2.2 0 1.35 1 2.95 1.1 1.7 2.8 3.25 1.8 1.45 4.15 2.55 2.3 1 4.85 1 2.35 0 6.2-3.55 3.23-2.985 6.9-7.25-.05.552-.05 1.05 0 1.25 1.05 2.85 1.05 1.65 2.8 3.2 1.75 1.5 4.1 2.65 2.3 1.05 4.85 1.05 2.35 0 6.2-3.55 3.23-2.985 6.9-7.25-.05.552-.05 1.05 0 1.25 1.05 2.85 1.05 1.65 2.8 3.2 1.75 1.5 4.1 2.65 2.3 1.05 4.85 1.05 2.35 0 6.2-3.55 3.95-3.65 8.55-9.2 4.5-5.55 9.3-12.35 4.75-6.75 9.05-13.1.45-.7.05-1.6-.4-.85-1.25-1.4-.8-.7-1.75-1.1-1-.4-1.6-.4t-1.25.9q-.7.95-2.5 3.6-3.1 4.3-6.45 9-3.3 4.8-6.6 8.9-3.2 4.1-6.05 7-2.9 2.95-4.85 3.4-.45-.7-.45-1.7 0-2.45 2.35-7.6 2.4-5.1 6.15-11.6 3.8-6.55 8.5-13.75t9.5-13.75q4.8-6.65 9.15-11.85 4.35-5.25 7.4-7.85.5-.45.85-.8.35-.45.35-.8 0-.6-.85-1.4-1.3-1.4-3.75-2.85-2.45-1.55-5.25-1.55-1.25 0-3.55 1.95-2.35 1.95-5.25 5.35t-6.3 8.05q-3.45 4.65-7.05 9.9-3.65 5.25-7.15 10.85-3.5 5.65-6.6 11.1-.081.148-.15.3-3.015 4.16-6.25 8.7-3.3 4.8-6.6 8.9-3.2 4.1-6.05 7-2.9 2.95-4.85 3.4-.45-.7-.45-1.7 0-2.45 2.35-7.6 2.4-5.1 6.15-11.6 3.8-6.55 8.5-13.75t9.5-13.75q4.8-6.65 9.15-11.85 4.35-5.25 7.4-7.85.5-.45.85-.8.35-.45.35-.8 0-.6-.85-1.4M355.9 95.7q1.35-3.8 3.75-8.2 2.45-4.35 5.6-8.8 3.1-4.5 6.4-8.25 3.25-3.8 6.45-6.45 3.05-2.6 5.5-3.3.5 2.3-.9 6.05-1.3 3.85-3.8 8.25-2.5 4.35-5.85 8.9-3.35 4.6-6.7 8.35-3.35 3.8-6.45 6.5-3.05 2.7-5.1 3.15-.25-2.45 1.1-6.2m297.6-53.3q4.75-6.15 7.7-8.6 1.15-.95 1.15-1.6 0-.7-.7-1.4-1.35-1.4-3.8-2.85-2.45-1.55-5.25-1.55-1.3 0-3.55 1.95-2.3 1.95-5.25 5.4-3 3.45-6.45 8.05-3.4 4.6-6.95 9.85-3.65 5.25-7.15 10.85-3.6 5.65-6.75 11.1-2.9 4.3-6.3 9.05-3.35 4.75-6.55 8.85-3.25 4.1-6.15 7-2.85 2.95-4.75 3.4-1.05-.8-.2-3.8.75-3.05 2.7-7.1 1.85-4.1 4.65-8.95 2.85-4.8 5.95-9.35t6.25-8.45q3.15-3.8 5.9-6 .95-.85 1.2-1.45.2-.5-.75-1.6-1.7-1.6-4.15-2.95-2.45-1.45-4.9-1.45-1.85 0-4.7 2.7-2.85 2.65-6.05 6.95-3.25 4.25-6.65 9.7-3.3 5.45-6 10.9-1.5 2.1-3.9 5.3-2.35 3.25-5.1 6.5-2.75 3.2-5.6 5.8-2.85 2.55-5.4 3.25-.95-.8-.2-3.8.8-3.05 2.75-7.1 1.95-4.1 4.7-8.95 2.75-4.8 5.85-9.35t6.3-8.45q3.15-3.8 5.85-6 .95-.85 1.2-1.45.3-.5-.75-1.6-1.65-1.6-4.1-2.95-2.45-1.45-4.75-1.45-1.6 0-3.9 1.9-2.25 1.85-4.85 5-2.65 3.1-5.45 7.3-2.8 4.1-5.35 8.6-3.1 4.3-6.45 9-3.3 4.8-6.6 8.9-3.2 4.1-6.05 7-2.9 2.95-4.85 3.4-.45-.7-.45-1.7 0-2.45 2.35-7.6 2.4-5.1 6.15-11.6 3.8-6.55 8.5-13.75t9.5-13.75q4.8-6.65 9.15-11.85 4.35-5.25 7.4-7.85.5-.45.85-.8.35-.45.35-.8 0-.6-.85-1.4-1.3-1.4-3.75-2.85-2.45-1.55-5.25-1.55-1.25 0-3.55 1.95-2.35 1.95-5.25 5.35t-6.3 8.05q-3.45 4.65-7.05 9.9Q547.5 56.9 544 62.5q-3.5 5.65-6.6 11.1-3.15 4.4-6.6 9.45-3.5 5-7.4 9.1-3.9 4.15-8.2 6.9-4.25 2.75-8.9 2.75-3.5 0-4.45-2.75-.9-2.75 0-6.95.95-4.2 3.4-9.25 2.4-5.05 5.7-9.65t7.1-8q3.75-3.45 7.4-4.5.4 1.3-.2 3.2-.5 1.9-1.65 3.95-1.2 2-2.75 4.05-1.6 2.05-3.45 3.8-.7.7-.65 1.25.05.6.45.95.45.35 1.15.55.65.15 1.15.15 3.8 0 5.25-.65 1.45-.7 2.4-2 3.2-4.9 5.3-8.55 2.15-3.65 2.15-7.3 0-1.15-1.4-2.7-1.5-1.6-3.7-3.1-2.2-1.4-4.65-2.5-2.45-1-4.25-1-2.95 0-6.4 1.85-3.45 1.8-7.1 4.95-3.6 3.1-7 7.25-3.45 4.1-6.35 8.75-3.5 5.85-5.8 12-2.25 6.05-2.25 11.55 0 2.1 1.2 4.6 1.25 2.5 3.4 4.75 2.1 2.25 5.1 3.75 3 1.55 6.5 1.55 7.2 0 13.4-3.65 5.602-3.316 10.55-8.15-.15 1.098-.15 2.05 0 1.25 1.05 2.85 1.05 1.65 2.8 3.2 1.75 1.5 4.1 2.65 2.3 1.05 4.85 1.05 2.35 0 6.2-3.55 3.62-3.345 7.75-8.3-.1 1.13-.1 2.1 0 1.35 1 3 1.05 1.75 2.8 3.25 1.8 1.4 4.1 2.5 2.35 1 4.9 1t6.05-2.75q3.6-2.75 7.7-7.5v.5q0 1.35 1.1 2.95 1 1.7 2.85 3.25 1.8 1.45 4.1 2.55 2.3 1 4.9 1 2.3 0 6.25-3.55 2.572-2.438 5.45-5.75.075 1.734 1 3.4 1 1.75 2.4 3.05 1.5 1.25 3.2 2.1 1.6.75 2.95.75 1.3 0 1.85-1.3.5-1.25.7-2.65.6-1.65 1.35-3.75.75-2.05 1.7-4.5v.1q0 1.4.9 3.45.95 2.05 2.55 3.95 1.7 1.9 3.95 3.25 2.25 1.45 4.8 1.45 3.15 0 7.05-2.4 3.8-2.35 7.85-6.35 4-4.05 7.8-9.25 3.75-5.15 6.7-10.75 2.95-5.7 4.7-11.3 1.8-5.6 1.8-10.45 0-1.75-1.65-3.55-1.55-1.85-3.8-3.45-2.25-1.55-4.75-2.55-2.5-.95-4.35-.95-1.45 0-3.8 1.6-2.4 1.55-5.2 4.25 5.5-8.05 10.25-14.25m-.25 16.2q.1.5.1 1.45 0 3.9-1.45 8.3-1.45 4.35-3.75 8.65-2.35 4.3-5.25 8.15-2.95 3.95-6.05 7.05-3 3.1-5.85 5.1-2.9 2.05-4.95 2.4v-.85q0-4.5 2.7-10.35 2.75-5.9 6.85-11.65 4.05-5.8 8.85-10.7 4.75-4.85 8.8-7.55" />
        <path id="t" fill="#002654"
            d="M122.65 83.75 155.9 35.3 98.2 46.6 62.4 0l-7.05 58.35L0 78l53.3 24.75 1.6 58.75 39.95-43.05 56.4 16.6z" />
        <path id="e" fill="none" stroke="#FFF" stroke-linecap="round" stroke-linejoin="round"
            stroke-width="11.2"
            d="M626.9-145.325H428.65q-12.29-.003-21.675 8.125-9.387 8.13-11.15 20.35-1.761 12.218 4.925 22.65l600.85 933.4q6.25 9.65 17.075 13.425 10.825 3.767 21.65 0 10.825-3.775 17.075-13.425l600.85-933.4q6.686-10.432 4.925-22.65-1.763-12.22-11.15-20.35-9.386-8.128-21.675-8.125h-269.575Q1378.21-234.763 1384-325.9q5.715-90.095.05-181.85-.741-12.06-9.1-20.825-8.36-8.77-20.4-10.1l-86.75-9.45q-3.07-3.192-6.225-6.325v.025q-9.76-9.699-19.925-18.425-46.757-40.23-102-60.1-51.17-18.395-109.625-19.325-.263-.005-.525 0-.263-.005-.525 0-58.429.93-109.575 19.325-55.273 19.861-102.05 60.1-10.165 8.726-19.925 18.425v-.025q-3.155 3.133-6.2 6.325l-86.775 9.45q-12.041 1.33-20.4 10.1-8.359 8.766-9.1 20.825-5.656 91.71.05 181.75 5.8 91.193 23.25 180.675H626.9" />
        <path id="g" fill="none" stroke="#002654" stroke-linecap="butt" stroke-linejoin="miter"
            stroke-miterlimit="3" stroke-width="80.4"
            d="M733.1-482.7q304.381-68.704 614.9 4.05 26.616 440.112-304.45 514.75Q681.793-72.39 733.1-482.7Z" />
        <path id="u" fill="none" stroke="#FFF" stroke-linecap="round" stroke-linejoin="round"
            stroke-width="16.85"
            d="m205.325 74.056-56.721 48.515 18.227 72.342-63.742-38.906-63.166 39.688 17.348-72.608L.01 75.2l74.37-5.915L102.21.011l28.606 68.943z" />
        <g id="d">
            <path fill="#002654"
                d="M1374.95-528.6q-8.36-8.746-20.4-10.1l-86.75-9.45q-3.07-3.167-6.25-6.3-9.735-9.674-19.9-18.4-46.757-40.23-102-60.1-51.17-18.395-109.65-19.35-.237.02-.5 0-.263.02-.55 0-58.404.955-109.55 19.35-55.273 19.861-102.05 60.1-10.165 8.726-19.95 18.4-3.13 3.133-6.2 6.3l-86.75 9.45q-12.041 1.354-20.4 10.1-8.359 8.79-9.1 20.85-5.656 91.71.05 181.75 5.8 91.193 23.25 180.65h-33.3v.05h-38q-.025-.004-.05-.05H428.65q-12.29.022-21.7 8.15-9.362 8.13-11.15 20.35-1.736 12.218 4.95 22.65l600.85 933.4q6.25 9.65 17.05 13.4 10.85 3.792 21.65 0 10.85-3.75 17.1-13.4l600.85-933.4q6.686-10.432 4.9-22.65-1.738-12.22-11.15-20.35-9.36-8.128-21.65-8.15h-269.6q17.46-89.413 23.25-180.55 5.715-90.095.05-181.85-.741-12.06-9.1-20.85m-55.65 52.8q.634 15.068.95 30.05 3.158 152.674-27.15 300.45H765.9q-30.299-147.792-27.15-300.5.318-14.948.95-30l71.05-7.75q11.61-1.252 19.7-9.3.748-.76 1.45-1.6 5.903-6.572 12.25-12.9v-.05q36.902-36.615 80.9-56.2 47.775-21.224 103.95-22.35h1q56.218 1.127 104 22.4 43.979 19.566 80.8 56.15v.05q6.397 6.328 12.25 12.9.752.84 1.5 1.6 8.09 8.048 19.7 9.3zm74.8 396.85V-79h175.45L1029.5 759.95 489.45-79H626.9q.025 0 .05-.05v.1z" />
            <path fill="#FFF"
                d="M1394.1-79v.05H626.95V-79h-137.5l540.05 838.95L1569.55-79zM1378-58.95V-59h154.9l-93 147.55L1029.5 723 619.1 88.55 526.1-59h112.8v.05zm-57.75-386.8q-.316-14.982-.95-30.05l-71.05-7.75q-11.61-1.252-19.7-9.3-.748-.76-1.5-1.6-5.853-6.572-12.25-12.9v-.05q-36.821-36.584-80.8-56.15-47.782-21.273-104-22.4h-1q-56.175 1.126-103.95 22.35-43.998 19.585-80.9 56.2v.05q-6.347 6.328-12.25 12.9-.702.84-1.45 1.6-8.09 8.048-19.7 9.3l-71.05 7.75q-.632 15.052-.95 30-3.149 152.708 27.15 300.5h20.4Q764.037-252.35 759.6-362q-1.937-47.628-.5-95.75l53.6-5.85q.11-.01.2-.05h.05q11.69-1.275 21.15-6.85 6.998-4.144 12.75-10.65 5.495-6.113 11.4-12l.05-.05q.216-.191.4-.4h-.05q31.309-30.944 68.1-48.7 46.691-22.45 102.25-23.65h.6q55.822 1.124 102.7 23.7 36.5 17.586 67.55 48.2.429.454.85.85v.05q5.955 5.887 11.4 12 5.798 6.502 12.8 10.6 9.454 5.624 21.15 6.9.025.027.05 0l53.8 5.9q1.44 48.113-.5 95.7-4.419 109.692-26.7 216.75h20.4q30.308-147.776 27.15-300.45" />
            <path fill="#047AFF"
                d="M1378-59v.05H638.9V-59H526.1l93 147.55L1029.5 723l410.4-634.45 93-147.55zm-78.6-303.05q1.94-47.587.5-95.7l-53.8-5.9q-.025.027-.05 0-11.696-1.276-21.15-6.9-7.002-4.098-12.8-10.6-5.445-6.113-11.4-12v-.05q-.421-.396-.85-.85-31.05-30.614-67.55-48.2-46.878-22.576-102.7-23.7h-.6q-55.559 1.2-102.25 23.65-36.791 17.756-68.1 48.7h.05q-.184.209-.4.4l-.05.05q-5.905 5.887-11.4 12-5.752 6.506-12.75 10.65-9.46 5.575-21.15 6.85h-.05q-.09.04-.2.05l-53.6 5.85q-1.437 48.122.5 95.75 4.437 109.65 26.7 216.7h486.4q22.281-107.058 26.7-216.75" />
        </g>
        <g id="f">
            <path fill="#047AFF"
                d="M1293.75-58.95 1029.5 723l338.55-781.95zM638.9-59h-28.65l419.25 782L690.95-58.95H638.9zm585.1.05h-66.5L1029.5 723zm-131 0h-63.5V723zm-258 0h-69.75L1029.5 723zm131 0h-64.55L1029.5 723zm566.9-.05h-84.2l-419.2 782 410.4-634.45z" />
            <path fill="#015BBF"
                d="M610.25-59H526.1l93 147.55L1029.5 723zm419.25.05H966L1029.5 723zm128 0H1093L1029.5 723zm136.25 0H1224L1029.5 723zm-392.3 0H835L1029.5 723zm-136.2 0h-74.3L1029.5 723zM1378-59v.05h-9.95L1029.5 723l419.2-782z" />
        </g>
        <g id="j">
            <path fill="url(#b)"
                d="m980.25 378.15 54-74.05Q793.6 261.5 619.55 243q-179.3-19.05-337.35-17.95-151.2 1.1-324.4 21.1-146.75 16.95-375.9 55.95l78.05 86.05q648.623-154.95 1320.3-10" />
            <path fill="#14182A" d="m1000.25 103.2-1.55-.15h-60.45l18 44 10.7 1.75z" />
            <path fill="#161B2E"
                d="M998.7 103.05h1.55L932.25-47h-1206.3L-330.1 86.05l12-2-24 62-16 2-60 154.05q229.15-39 375.9-55.95 173.2-20 324.4-21.1 158.05-1.1 337.35 17.95 174.05 18.5 414.7 61.1l-60-154.05-7.3-1.25-10.7-1.75-18-44z" />
        </g>
        <g id="p">
            <path fill="#8C3600"
                d="M512.5 117.25q-.186-.31-.4-.7l-.2-.25q-11.842-14.816-25.8-28.7-5.387-5.314-10.9-10.25-33.836-30.674-73.25-48.1-19.216-8.504-39.85-13.85-.226-.134-.5-.25-.656-.191-1.35-.25-34.804-9.05-73.1-9.05-27.582.006-53.35 4.7l.05-.05q-.6.125-1.2.2-.034.038-.1.05-5.937 1.126-11.85 2.45h-.15q-.289.004-.6.05-74.09 17.356-131.9 74.3-.012.038-.05.05-.792.737-1.55 1.55-1.276.362-2.55.65-.663.188-1.15.65-.498.51-.7 1.15-.15.699.05 1.35l.15.6Q5.601 173.623 5.6 285.25q.004 28.101 5 54.45.013.458.15 1 .084.347.25.75 15.53 80.122 76.95 141.4H88q31.16 30.735 66.95 49.95.252.21.5.35 59.355 31.485 131.7 31.5 48.613-.004 91.25-14.15.099 0 .15-.05.287-.075.6-.15.198-.009.4-.1 58.977-20.202 106.55-67.35 53.866-53.383 72.6-121 .904-.328 1.35-1.2.473-.878.2-1.85-.182-.622-.3-1.3 8.85-34.394 8.85-72.25-.01-95.617-56.3-168m-20.8-.9q.267.313.65.55.676.64 1.35 1.25 4.011 3.728 7.95 7.8 53.112 68.715 53.1 159.3.002 22.953-3.45 44.45-17.335-46.63-54.05-91.35l-.05-.05q-.746-.977-1.65-2l.05.1q-.933-1.152-1.9-2.3-33.888-40.144-78-71.9-1.03-.74-2.1-1.5-14.65-10.477-30.4-19.95-21.992-13.267-44.3-23.8 9.586-13.267 23.55-22.15.347-.22.6-.55 28.68-17.943 64.6-11.25 1.863.35 3.7.75l1.85.4q30.874 7.4 58.5 32.2M430.25 69.2q-1.575-.315-3.1-.6-.962-.133-1.95-.3-38.797-5.73-70.25 14.65v-.05q-17.634 11.201-29.15 28.2-29.684-12.705-60.15-20.65 5.946-7.572 12.25-14.4l.05-.05q42.161-46.666 80.7-47.05 27.334 7.174 52.2 20.15 2.035 1.087 4.05 2.2 18.382 10.017 35.4 23.25-9.9-3.514-20.05-5.35m-98.8 59.75q22.432 10.46 44.45 23.75 20.245 12.23 38.7 26.05.928.697 1.85 1.4 39.379 29.896 70 67.1v-.05q2.7 3.3 5.25 6.6v.05q1.02 1.268 2 2.55 38.01 49.248 51.75 100.9-17.81 64.633-69.2 115.55-40.351 40.038-89.45 59.65 9.232-46.89-6.35-115.85h-.05q-1.92-8.444-5.55-21.4-.286-1.062-.6-2.2-12.856-46.157-45.3-146.4-.125-.45-.3-.9v.05q-1.087-3.516-2.1-7-13.697-48.156-3.6-87.3 3.261-12.297 8.5-22.55m26.2 256.95q.397 1.288.75 2.5 5.618 19.795 8.2 31.3 16.352 71.954 4.3 118.5-39.252 12.407-83.75 12.4-67.013.007-122.3-28.4-17.717-70.485-6.35-159.1 2.46-18.692 6-37.25.484-2.327.95-4.65 11.483-56.8 33.8-111.85.53-1.322 1.05-2.65 1.313-3.187 2.65-6.35 23.886-57.084 53.45-97.75 31.564 7.71 62.15 20.7-5.673 11.235-9.15 24.65-12.199 45.703 6.1 102.65.047.237.1.45 3.875 11.812 7.4 22.9 1.086 3.32 2.1 6.55 21.601 67.219 32.55 105.4M267.5 66.6q-8.756 9.624-17 20.3-5.87-1.293-11.95-2.35h.05q-13.813-2.677-27.45-4.15 19.353-30.418 18.05-54.85 27.878-5.65 57.95-5.65 19.142.003 37.35 2.3-27.841 12.133-57 44.4M211.95 30l3.2-.9q-.62 21.985-20 49.85-3.293-.221-6.55-.45-.305.017-.6 0h-.05q-12.552-.626-24.9-.4-.549.037-1.1.05h-.05q-24.44.633-48.05 4.9 30.901-26.501 66.4-41.85 1.46-.6 2.9-1.2 14.075-5.87 28.8-10M181.4 96.7v-.05q-14.569 17.017-35.2 35.95-2.4 2.2-4.9 4.4-9.777 8.794-20.9 17.95-78.366 64.617-100.75 132.6v-2.3q.004-106.985 74.15-183.5 30.937-7.982 63.4-9.35.574-.028 1.15-.05 12.983-.486 26.35.05.115.02.2 0-.136.223-.3.4-1.563 1.949-3.2 3.9m54.6 1.65q.077.012.1 0 2.67.433 5.4.95-26.388 37.617-48.35 88.45-.704 1.64-1.4 3.25-.85 1.963-1.7 3.95-19.69 46.655-31.75 94.7l-1.9 7.75q-7.409 31.286-11.6 63.05-.166.418-.25.85-10.732 83.607 3.75 151.45-26.673-16.367-50.45-39.9-58.363-58.204-73.2-134.2 3.072-89.154 104.7-172.95 7.979-6.567 15.3-12.95 3.015-2.572 5.9-5.15 15.799-14.18 28.45-27.45 1.313-1.354 2.55-2.7 11.612-12.353 20.4-23.95 16.81 1.566 34.05 4.85" />
            <path fill="#FF6708"
                d="M236.1 98.35q-.023.012-.1 0-17.24-3.284-34.05-4.85-8.787 11.597-20.4 23.95-1.237 1.346-2.55 2.7-12.651 13.27-28.45 27.45-2.885 2.578-5.9 5.15-7.321 6.383-15.3 12.95-101.628 83.796-104.7 172.95 14.837 75.996 73.2 134.2 23.777 23.533 50.45 39.9-14.482-67.843-3.75-151.45.084-.432.25-.85 4.191-31.764 11.6-63.05l1.9-7.75q12.06-48.045 31.75-94.7.85-1.987 1.7-3.95.696-1.61 1.4-3.25 21.962-50.833 48.35-88.45-2.73-.517-5.4-.95M193 159.1q-.3.6-.6 1.15.25-1.3.6-2.55zm-11.6-62.45v.05q1.637-1.951 3.2-3.9.052-.18.1-.4-13.367-.536-26.35-.05-.576.022-1.15.05-32.463 1.368-63.4 9.35-74.146 76.515-74.15 183.5v2.3q22.384-67.983 100.75-132.6 11.123-9.156 20.9-17.95 2.5-2.2 4.9-4.4 20.631-18.933 35.2-35.95m33.75-67.55-3.2.9q-14.725 4.13-28.8 10-1.44.6-2.9 1.2-35.499 15.349-66.4 41.85 23.61-4.267 48.05-4.9h.05q.551-.013 1.1-.05 12.348-.226 24.9.4h.05q.295.017.6 0 3.257.229 6.55.45 19.38-27.865 20-49.85m35.35 57.8q8.244-10.676 17-20.3 29.159-32.267 57-44.4-18.208-2.297-37.35-2.3-30.072 0-57.95 5.65 1.303 24.432-18.05 54.85 13.637 1.473 27.45 4.15h-.05q6.08 1.057 11.95 2.35m107.9 301.5q-.353-1.212-.75-2.5-10.949-38.181-32.55-105.4-1.014-3.23-2.1-6.55-3.525-11.088-7.4-22.9-.053-.213-.1-.45-18.299-56.947-6.1-102.65 3.477-13.415 9.15-24.65-30.586-12.99-62.15-20.7-29.564 40.666-53.45 97.75-1.337 3.163-2.65 6.35-.52 1.328-1.05 2.65-22.317 55.05-33.8 111.85-.466 2.323-.95 4.65-3.54 18.558-6 37.25-11.367 88.615 6.35 159.1 55.287 28.407 122.3 28.4 44.498.007 83.75-12.4 12.052-46.546-4.3-118.5-2.582-11.505-8.2-31.3m17.5-235.7q-22.018-13.29-44.45-23.75-5.239 10.253-8.5 22.55-10.097 39.144 3.6 87.3 1.013 3.484 2.1 7v-.05q.175.45.3.9 32.444 100.243 45.3 146.4.314 1.137.6 2.2 3.63 12.956 5.55 21.4h.05q15.582 68.96 6.35 115.85 49.099-19.612 89.45-59.65 51.39-50.917 69.2-115.55-13.74-51.652-51.75-100.9-.98-1.282-2-2.55v-.05q-2.55-3.3-5.25-6.6v.05q-30.621-37.204-70-67.1-.922-.703-1.85-1.4-18.455-13.82-38.7-26.05m49.3-84.4q-4.312-7.785-9.7-16.1-.297-.454-.6-.9-2.015-1.113-4.05-2.2-24.866-12.976-52.2-20.15-38.539.384-80.7 47.05l-.05.05q-6.304 6.828-12.25 14.4 30.466 7.945 60.15 20.65 11.516-16.999 29.15-28.2v.05q31.453-20.38 70.25-14.65m67.15 48.6q-.383-.237-.65-.55-27.626-24.8-58.5-32.2l-1.85-.4q-1.838-.4-3.7-.75-35.92-6.693-64.6 11.25-.253.33-.6.55-13.964 8.883-23.55 22.15 22.308 10.533 44.3 23.8 15.75 9.473 30.4 19.95 1.07.76 2.1 1.5 44.112 31.756 78 71.9.967 1.148 1.9 2.3l-.05-.1q.904 1.023 1.65 2l.05.05q36.715 44.72 54.05 91.35 3.452-21.497 3.45-44.45.012-90.585-53.1-159.3-3.939-4.072-7.95-7.8-.674-.61-1.35-1.25" />
            <path fill="#36F" d="M192.4 160.25q.3-.55.6-1.15v-1.4q-.35 1.25-.6 2.55" />
            <path fill="#FF9858" d="M184.9 92.4q-.085.02-.2 0-.048.22-.1.4.164-.177.3-.4" />
            <path fill="#FF8438"
                d="M427.15 68.6q1.525.285 3.1.6 10.15 1.836 20.05 5.35-17.018-13.233-35.4-23.25.303.446.6.9 5.387 8.315 9.7 16.1.988.167 1.95.3" />
        </g>
        <g id="v">
            <path fill="#FF9F2A"
                d="m0 78 53.3 24.75L84.85 82zm94.85 40.45L84.85 82 54.9 161.5zM62.4 0l-7.05 58.35 29.5 23.6zm60.25 83.75L84.9 82l66.35 53.05zm-37.8-1.8.05.05 71-46.7-57.7 11.3z" />
            <path fill="#FF6708"
                d="m53.3 102.75 1.6 58.75L84.85 82zM84.9 82l37.75 1.75L155.9 35.3zm-.05-.05L98.2 46.6 62.4 0zm.05.05-.05-.05-29.5-23.6L0 78l84.85 4 10 36.45 56.4 16.6z" />
        </g>
        <linearGradient id="b" x1="284.05" x2="284.05" y1="144.05" y2="640.15"
            gradientUnits="userSpaceOnUse" spreadMethod="pad">
            <stop offset="0%" stop-color="#161B2E" />
            <stop offset="100%" stop-color="#36F" />
        </linearGradient>
        <linearGradient id="c" x1="291.9" x2="291.9" y1="-93.35" y2="313.35"
            gradientUnits="userSpaceOnUse" spreadMethod="pad">
            <stop offset="0%" stop-color="#161B2E" />
            <stop offset="100%" stop-color="#36F" />
        </linearGradient>
    </defs>
    <g transform="translate(666.198 794.827)scale(.29306)">
        <use xlink:href="#d" />
        <use xlink:href="#e" />
    </g>
    <use xlink:href="#f" transform="translate(666.198 794.827)scale(.29306)" />
    <use xlink:href="#g" transform="translate(663.854 794.827)scale(.29306)" />
    <use xlink:href="#h" transform="translate(663.854 794.827)scale(.29306)" />
    <use xlink:href="#i" transform="matrix(.39902 0 0 .39902 839.082 818.96)" />
    <use xlink:href="#j" transform="matrix(.39902 0 0 .39902 839.082 818.96)" />
    <use xlink:href="#k" transform="matrix(.39902 0 0 .39902 839.082 818.96)" />
    <use xlink:href="#l" transform="matrix(.39902 0 0 .39902 839.082 818.96)" />
    <use xlink:href="#m" transform="matrix(.39902 0 0 .39902 839.082 818.96)" />
    <use xlink:href="#n" transform="matrix(.39902 0 0 .39902 839.082 818.96)" />
    <use xlink:href="#o" transform="matrix(.29303 0 0 .29303 885.642 622.027)" />
    <use xlink:href="#p" transform="matrix(.29303 0 0 .29303 885.642 622.027)" />
    <use xlink:href="#q" transform="matrix(.4948 0 0 .4948 962.824 702.85)" />
    <use xlink:href="#r" transform="matrix(.4948 0 0 .4948 962.824 702.85)" />
    <use xlink:href="#s" transform="matrix(.4948 0 0 .4948 797.362 664.75)" />
    <g transform="scale(.3722)rotate(14.998 -6217.076 10652.56)">
        <use xlink:href="#t" />
        <use xlink:href="#u" transform="matrix(.76045 -.20372 .20372 .76045 -15.3 20.8)" />
    </g>
    <use xlink:href="#v" transform="scale(.3722)rotate(14.998 -6217.076 10652.56)" />
    <g transform="matrix(.30025 .08044 -.08044 .30025 872.432 732.88)">
        <use xlink:href="#t" />
        <use xlink:href="#u" transform="matrix(.76045 -.20372 .20372 .76045 -15.3 20.8)" />
    </g>
    <use xlink:href="#v" transform="matrix(.30025 .08044 -.08044 .30025 872.432 732.88)" />
    <g transform="matrix(.19939 .05342 -.05342 .1994 817.614 726.653)">
        <use xlink:href="#t" />
        <use xlink:href="#u" transform="matrix(.76045 -.20372 .20372 .76045 -15.3 20.8)" />
    </g>
    <use xlink:href="#v" transform="matrix(.19939 .05342 -.05342 .1994 817.614 726.653)" />
    <g transform="matrix(.30025 .08044 -.08044 .30025 1029.522 732.88)">
        <use xlink:href="#t" />
        <use xlink:href="#u" transform="matrix(.76045 -.20372 .20372 .76045 -15.3 20.8)" />
    </g>
    <use xlink:href="#v" transform="matrix(.30025 .08044 -.08044 .30025 1029.522 732.88)" />
    <g transform="matrix(.19939 .05342 -.05342 .1994 1097.019 726.653)">
        <use xlink:href="#t" />
        <use xlink:href="#u" transform="matrix(.76045 -.20372 .20372 .76045 -15.3 20.8)" />
    </g>
    <use xlink:href="#v" transform="matrix(.19939 .05342 -.05342 .1994 1097.019 726.653)" />
</svg>