<svg xmlns="http://www.w3.org/2000/svg" xmlns:xlink="http://www.w3.org/1999/xlink" width="280"
    height="280">
    <defs>

        <path id="b" fill="#CE8FF5"
            d="M6472 5686.15q-79.6 79.6-123.2 182.8-45.2 106.8-45.2 223.8 0 116.95 45.2 223.8 43.6 103.2 123.2 182.8 79.55 79.55 182.75 123.2 106.8 45.2 223.8 45.2t223.8-45.2q103.2-43.65 182.8-123.2 79.55-79.6 123.2-182.8 45.2-106.8 45.2-223.8t-45.2-223.8q-43.65-103.2-123.2-182.8-79.6-79.55-182.8-123.2-106.85-45.2-223.8-45.2-117 0-223.8 45.2-103.2 43.65-182.75 123.2" />
        <path id="c" fill="#3B0A6C"
            d="M6424.05 5957q-20.1 66.85-20.1 137.4 0 93.85 35.15 180.05 33.95 83.2 96.15 148.65 62.1 65.25 143.3 103.35 83.8 39.3 176.6 44.25 6.8-.55 12.55-1.5-100.55-13.3-167.3-61.7-57-41.3-86.5-105.8-24.45-53.55-27.6-116.45-2.55-52.25 9.4-93.45l-.05 8.9q.05 11.35.6 24 1.75 40.3 8.05 77.45 20.05 118.95 77.35 161.8 68.25-31.1 117.55-46.5 60.2-18.8 108.75-19.9 54.35-1.3 99.75 19.25 49.1 22.25 90.65 71.2 58.55-26.55 107-69.15 47.05-41.35 81.1-94.8 33.75-52.9 51.95-113.2 18.45-60.95 19.5-124.35-1.2-72.45-23.55-140.75-21.7-66.1-61.6-123.5 4.7 103.45-52.5 197.8-24.65 40.55-59.15 76.35-31.6 32.75-68.55 58.55 15.75-49.6 2.4-112.25-5.55-25.95-15.3-49.45-9.1-21.9-19.6-36.45-2.85 24.55-15.75 47.75-12.5 22.4-31.35 38.15-19.3 16.1-40.3 21.1-22.55 5.4-42.6-3.35-21.75-9.45-49.3-25.9-29.6-17.65-57-38.2-67.05-50.25-90.55-93.3-5.95 13.9-8.35 39.8-1.2 13-1.2 23.15-25.1-34-26.75-98.8-1-38.1 7.65-103-23.75 10.55-46.3 32.1-19.2 18.4-37 44.35-30.85-3.7-74.7-5.1-26.3-1.2-53-.65-8.95.2-13.1.4-36.95 56.95-56.4 121.7m328.25 172.55v-47.95l123.8 47.95z" />
        <path id="d" fill="#3B0A6C"
            d="M-837.4 330.35q-31.7-31.7-72.75-49-42.55-18.05-89.1-18.05-46.6 0-89.15 18.05-41.1 17.35-72.75 49-31.7 31.7-49.05 72.75-18 42.55-18 89.15 0 46.55 18 89.1 17.35 41.05 49.05 72.75 31.65 31.65 72.75 49.1 42.55 18 89.15 18 46.55 0 89.1-18 41.05-17.35 72.75-49.1 31.65-31.65 49.1-72.75 17.95-42.55 18-89.1-.05-46.6-18-89.15-17.45-41.1-49.1-72.75m-80.85-29.9q37.35 15.75 66.15 44.6 28.8 28.8 44.65 66.15 16.35 38.65 16.35 81t-16.35 81q-15.85 37.35-44.65 66.15-28.8 28.85-66.15 44.65-38.65 16.35-81 16.35t-81-16.35q-37.35-15.85-66.15-44.65-28.85-28.8-44.6-66.15-16.4-38.65-16.35-81-.05-42.35 16.35-81 15.75-37.35 44.6-66.15 28.8-28.8 66.15-44.6 38.65-16.4 81-16.35 42.35-.05 81 16.35" />
    </defs>

    <use xlink:href="#b" transform="matrix(.21274 0 0 .21246 -1325 -1150)" />
    <use xlink:href="#c" transform="matrix(.21274 0 0 .21246 -1325 -1150)" />
    <use xlink:href="#d" transform="matrix(.51358 0 0 .5129 651 -108)" />
</svg>